<?xml version="1.0" encoding="UTF-8"?>
<svg id="_圖層_1" data-name="圖層_1" xmlns="http://www.w3.org/2000/svg" xmlns:xlink="http://www.w3.org/1999/xlink" viewBox="0 0 220 79">
  <defs>
    <style>
      .cls-1 {
        fill: url(#linear-gradient-15);
      }

      .cls-2 {
        fill: url(#linear-gradient-13);
      }

      .cls-3 {
        fill: #231815;
      }

      .cls-4 {
        fill: #595757;
      }

      .cls-5 {
        fill: url(#linear-gradient-2);
      }

      .cls-6 {
        fill: url(#linear-gradient-10);
      }

      .cls-7 {
        fill: url(#linear-gradient-12);
      }

      .cls-8 {
        fill: url(#linear-gradient-4);
      }

      .cls-9 {
        fill: url(#linear-gradient-3);
      }

      .cls-10 {
        fill: url(#linear-gradient-5);
      }

      .cls-11 {
        fill: url(#linear-gradient-8);
      }

      .cls-12 {
        fill: url(#linear-gradient-14);
      }

      .cls-13 {
        fill: url(#linear-gradient-20);
      }

      .cls-14 {
        fill: url(#linear-gradient-17);
      }

      .cls-15 {
        fill: url(#linear-gradient-7);
      }

      .cls-16 {
        fill: url(#linear-gradient-9);
      }

      .cls-17 {
        fill: url(#linear-gradient-11);
      }

      .cls-18 {
        fill: url(#linear-gradient-19);
      }

      .cls-19 {
        fill: url(#linear-gradient-6);
      }

      .cls-20 {
        fill: url(#linear-gradient-21);
      }

      .cls-21 {
        fill: url(#linear-gradient-16);
      }

      .cls-22 {
        fill: url(#linear-gradient);
      }

      .cls-23 {
        fill: url(#linear-gradient-18);
      }
    </style>
    <linearGradient id="linear-gradient" x1="12.96" y1="34.52" x2="88.69" y2="34.52" gradientUnits="userSpaceOnUse">
      <stop offset=".38" stop-color="#00acd8" stop-opacity="0"/>
      <stop offset=".46" stop-color="#00acd8" stop-opacity=".1"/>
      <stop offset=".63" stop-color="#00acd8" stop-opacity=".36"/>
      <stop offset=".88" stop-color="#00acd8" stop-opacity=".78"/>
      <stop offset="1" stop-color="#00acd8"/>
    </linearGradient>
    <linearGradient id="linear-gradient-2" x1="12.96" x2="88.69" xlink:href="#linear-gradient"/>
    <linearGradient id="linear-gradient-3" x1="12.96" x2="88.69" xlink:href="#linear-gradient"/>
    <linearGradient id="linear-gradient-4" x1="13.04" y1="39.5" x2="93.68" y2="39.5" xlink:href="#linear-gradient"/>
    <linearGradient id="linear-gradient-5" x1="19.12" y1="19.62" x2="94.86" y2="19.62" xlink:href="#linear-gradient"/>
    <linearGradient id="linear-gradient-6" x1="19.12" y1="19.62" x2="94.86" y2="19.62" xlink:href="#linear-gradient"/>
    <linearGradient id="linear-gradient-7" x1="19.13" y1="19.62" x2="94.86" y2="19.62" xlink:href="#linear-gradient"/>
    <linearGradient id="linear-gradient-8" x1="12.96" y1="34.52" x2="88.69" y2="34.52" gradientUnits="userSpaceOnUse">
      <stop offset=".17" stop-color="#00b451" stop-opacity="0"/>
      <stop offset=".18" stop-color="#00b451" stop-opacity=".11"/>
      <stop offset=".21" stop-color="#00b451" stop-opacity=".42"/>
      <stop offset=".24" stop-color="#00b451" stop-opacity=".67"/>
      <stop offset=".27" stop-color="#00b451" stop-opacity=".85"/>
      <stop offset=".29" stop-color="#00b451" stop-opacity=".96"/>
      <stop offset=".3" stop-color="#00b451"/>
      <stop offset=".64" stop-color="#00b451"/>
      <stop offset=".7" stop-color="#00b451"/>
      <stop offset=".88" stop-color="#00b451" stop-opacity="0"/>
    </linearGradient>
    <linearGradient id="linear-gradient-9" x1="12.96" x2="88.69" xlink:href="#linear-gradient-8"/>
    <linearGradient id="linear-gradient-10" x1="12.96" x2="88.69" xlink:href="#linear-gradient-8"/>
    <linearGradient id="linear-gradient-11" x1="13.04" y1="39.5" x2="93.68" y2="39.5" xlink:href="#linear-gradient-8"/>
    <linearGradient id="linear-gradient-12" x1="19.12" y1="19.62" x2="94.86" y2="19.62" xlink:href="#linear-gradient-8"/>
    <linearGradient id="linear-gradient-13" x1="19.12" y1="19.62" x2="94.86" y2="19.62" xlink:href="#linear-gradient-8"/>
    <linearGradient id="linear-gradient-14" x1="19.13" y1="19.62" x2="94.86" y2="19.62" xlink:href="#linear-gradient-8"/>
    <linearGradient id="linear-gradient-15" x1="12.96" y1="34.52" x2="88.69" y2="34.52" gradientUnits="userSpaceOnUse">
      <stop offset="0" stop-color="#eba900"/>
      <stop offset=".23" stop-color="#eba900" stop-opacity=".68"/>
      <stop offset=".6" stop-color="#eba900" stop-opacity=".19"/>
      <stop offset=".77" stop-color="#eba900" stop-opacity="0"/>
    </linearGradient>
    <linearGradient id="linear-gradient-16" x1="12.96" x2="88.69" xlink:href="#linear-gradient-15"/>
    <linearGradient id="linear-gradient-17" x1="12.96" x2="88.69" xlink:href="#linear-gradient-15"/>
    <linearGradient id="linear-gradient-18" x1="13.04" y1="39.5" x2="93.68" y2="39.5" xlink:href="#linear-gradient-15"/>
    <linearGradient id="linear-gradient-19" x1="19.12" y1="19.62" x2="94.86" y2="19.62" xlink:href="#linear-gradient-15"/>
    <linearGradient id="linear-gradient-20" x1="19.12" y1="19.62" x2="94.86" y2="19.62" xlink:href="#linear-gradient-15"/>
    <linearGradient id="linear-gradient-21" x1="19.13" y1="19.62" x2="94.86" y2="19.62" xlink:href="#linear-gradient-15"/>
  </defs>
  <g>
    <path class="cls-4" d="M115.41,57.24h-1.45v6.39h-1.44v-6.39h-1.43v-1.4h4.33v1.4Z"/>
    <path class="cls-4" d="M125.27,63.63h-1.59l-.84-2.01h-2.77l-.86,2.01h-1.59l3.24-7.79h1.13l3.29,7.79ZM122.26,60.22l-.83-2.37-.83,2.37h1.66Z"/>
    <path class="cls-4" d="M129.62,63.63h-1.44v-7.79h1.44v7.79Z"/>
    <path class="cls-4" d="M141.14,59.83c0,1.12-.41,2.06-1.23,2.83-.82.77-1.79,1.15-2.92,1.15s-2.11-.39-2.93-1.17c-.82-.78-1.23-1.73-1.23-2.86s.41-2.11,1.22-2.9c.82-.79,1.79-1.19,2.92-1.19.81,0,1.58.22,2.29.66s1.21,1.03,1.49,1.77h-1.73c-.23-.32-.53-.57-.9-.75-.37-.19-.75-.28-1.15-.28-.69,0-1.23.17-1.62.52-.39.34-.67.69-.83,1.05-.16.35-.24.71-.24,1.08,0,.33.06.65.19.97.13.32.39.68.78,1.09.39.41.99.61,1.78.61.46,0,.9-.13,1.33-.39.43-.26.75-.59.96-1h-3.26v-1.36h5.09v.17Z"/>
    <path class="cls-4" d="M149.48,63.63h-1.79l-2.02-2.98-.02,2.98h-1.44v-7.79h2.25c.57,0,1,.04,1.27.13.27.09.54.24.8.45.26.21.46.49.63.82.16.33.24.69.24,1.06,0,.29-.06.59-.18.91-.12.32-.27.58-.46.78-.19.2-.4.37-.63.48-.23.12-.48.21-.76.27l2.12,2.88ZM147.94,58.39c0-.39-.11-.66-.32-.82-.21-.16-.4-.25-.57-.29-.17-.03-.37-.05-.61-.05h-.8v2.32h.79c.31,0,.55-.03.73-.09.18-.06.35-.17.52-.33.17-.16.26-.41.26-.75Z"/>
    <path class="cls-4" d="M156.62,63.63h-4.18v-7.79h4.18v1.4h-2.74v1.8h2.62v1.4h-2.62v1.79h2.74v1.4Z"/>
    <path class="cls-4" d="M167.05,63.63h-1.59l-.84-2.01h-2.77l-.86,2.01h-1.59l3.24-7.79h1.12l3.29,7.79ZM164.04,60.22l-.83-2.37-.83,2.37h1.66Z"/>
    <path class="cls-4" d="M173.65,57.24h-1.45v6.39h-1.44v-6.39h-1.43v-1.4h4.33v1.4Z"/>
    <path class="cls-4" d="M185.52,57.24h-1.45v6.39h-1.44v-6.39h-1.43v-1.4h4.33v1.4Z"/>
    <path class="cls-4" d="M193.64,63.63h-1.79l-2.02-2.98-.02,2.98h-1.44v-7.79h2.25c.58,0,1,.04,1.27.13.27.09.54.24.79.45.26.21.46.49.63.82.16.33.24.69.24,1.06,0,.29-.06.59-.18.91-.12.32-.27.58-.46.78-.19.2-.4.37-.63.48-.23.12-.48.21-.76.27l2.12,2.88ZM192.11,58.39c0-.39-.11-.66-.32-.82-.22-.16-.41-.25-.57-.29-.17-.03-.37-.05-.61-.05h-.8v2.32h.79c.31,0,.55-.03.73-.09.18-.06.35-.17.52-.33.17-.16.26-.41.26-.75Z"/>
    <path class="cls-4" d="M203.62,63.63h-1.59l-.84-2.01h-2.77l-.86,2.01h-1.59l3.24-7.79h1.13l3.29,7.79ZM200.6,60.22l-.83-2.37-.83,2.37h1.66Z"/>
    <path class="cls-4" d="M212.77,59.78c0,.55-.12,1.09-.35,1.62-.23.53-.56.97-.99,1.34-.43.37-.9.61-1.4.72-.51.12-1.12.17-1.84.17h-1.66v-7.79h1.63c.7,0,1.31.06,1.84.18.53.12,1.01.36,1.43.71.42.36.75.81.99,1.36.24.55.35,1.11.35,1.68ZM211.32,59.78c0-.42-.09-.81-.27-1.18-.18-.37-.43-.65-.74-.87-.31-.21-.64-.35-.98-.41-.34-.06-.76-.08-1.26-.08h-.11v4.97l.18.02c.17.02.33.03.48.03.33,0,.64-.04.92-.13.28-.09.57-.24.85-.45.28-.21.5-.49.67-.83.17-.34.25-.7.25-1.08Z"/>
    <path class="cls-4" d="M220.2,63.63h-4.18v-7.79h4.18v1.4h-2.74v1.8h2.62v1.4h-2.62v1.79h2.74v1.4Z"/>
  </g>
  <g>
    <path class="cls-3" d="M123.51,43.52c1.05-.73,1.91-1.4,2.6-2.02l-1.18-1.31h-7.02l-.27.31-1.36,1.42,2.2,2.29-1.42,1.11c-.36-.47-1.09-1.22-2.09-2.24-.89.73-1.73,1.33-2.51,1.8l-1.38-1.36c1.93-1.16,3.44-2.29,4.49-3.33h-4.18v-1.8h5.8l1.11-1.67h-5.33v-1.8h6.18l.51-1.69h-7.47v-1.8h7.8l.2-1.33,1.87.2-.2,1.13h8.94v1.8h-9.33l-.47,1.69h8.91v1.8h-5.2l1.07,1.67h5.71v1.8h-4.24c1.13,1.11,2.66,2.18,4.6,3.18l-1.42,1.49c-1.07-.64-2.05-1.38-2.98-2.13-.73.71-1.67,1.47-2.8,2.24l-1.13-1.44ZM112.11,48.87c2.8-1.16,4.93-2.27,6.44-3.33l1,1.49c-1.73,1.22-3.96,2.42-6.71,3.6l-.73-1.76ZM120.58,41.58h1.87v6.98c0,.25,0,2.22-2.36,2.22-.62,0-1.42-.13-2.4-.36v-1.96c.89.25,1.58.36,2.05.36.62,0,.85-.13.85-.78v-6.47ZM123.64,38.38l-.98-1.67h-2.36l-1,1.67h4.33ZM129.64,50.74c-1.64-1.02-3.67-2.13-6.04-3.27l.93-1.62c2.89,1.42,4.96,2.56,6.14,3.33l-1.02,1.56Z"/>
    <path class="cls-3" d="M137.56,39.36v11.29h-1.71v-9.6c-.29.89-.58,1.67-.89,2.31l-1.69-.29c1.18-2.24,1.93-4.67,2.24-7.27h-1.98v-1.73h2.31v-3.84h1.71v3.84h1.82v1.73h-1.82v.64c.82,1.2,1.6,2.4,2.33,3.65l-1.47.89-.87-1.62ZM148.25,48.85h5.33v1.53h-12.11c-.4,0-.58-.2-.58-.6v-6.49l-.91.89c-.38-.6-.78-1-1.13-1.29,1.31-1.18,2.33-2.67,3.02-4.45l1.62.8-.58,1.09h3.49c.44-.75.78-1.4.98-1.93l1.53.78-.53,1.16h5.11l-.16,1.53h-5.09v1.25h4.84v1.53h-4.84v1.33h4.78v1.53h-4.78v1.33ZM148.87,32.67h-3.85v.69h-1.71v-.69h-3.27v-1.53h3.27v-1h1.71v1h3.85v-1h1.71v1h3.14v1.53h-3.14v.78h-1.71v-.78ZM146.34,37.98c0,.16-.09.24-.24.24h-5.6c-.16,0-.22-.09-.22-.24v-4.11c0-.16.07-.22.22-.22h5.6c.15,0,.24.07.24.22v4.11ZM144.54,35.18h-2.49c-.07,0-.09.02-.07.07v1.36l.07.09h2.49l.09-.09v-1.36l-.09-.07ZM146.54,43.12v-1.25h-3.71c-.13,0-.22.09-.22.25v1h3.94ZM146.54,45.98v-1.33h-3.94v1.33h3.94ZM146.54,48.85v-1.33h-3.94v1.07c0,.18.09.27.22.27h3.71ZM153.45,37.98c0,.16-.09.24-.25.24h-5.69c-.13,0-.2-.09-.2-.24v-4.02c0-.16.07-.22.2-.22h5.69c.16,0,.25.07.25.22v4.02ZM151.65,35.27h-2.56c-.07,0-.09.02-.07.07v1.27l.07.09h2.56l.09-.09v-1.27l-.09-.07Z"/>
    <path class="cls-3" d="M156.85,44.54v-13.18c-.04-.24.04-.42.36-.44,1.22-.16,2.27-.4,3.09-.67l.91,1.6c0-1,0-1.24.58-1.24h8.16c.42,0,.62.2.62.6v13.34h2.67v-2.71h-2v-1.8h2v-2.89h-2v-1.8h2v-2.6c0-.16-.09-.24-.24-.24h-1.73v-1.71h3.33c.29,0,.44.16.44.44v13.31h1.16v1.8h-20.58v-1.8h1.24ZM163.05,48.67c-2.42,1.18-4.71,1.87-6.89,2,.02-.29.04-.53.04-.78,0-.42-.04-.78-.13-1.09,2.22-.13,3.82-.58,6.16-1.94l.82,1.8ZM158.56,44.54h2.64v-12.6c-.87.25-1.71.45-2.4.56-.2.02-.27.09-.25.22v2.62h2v1.8h-2v2.89h2v1.8h-2v2.71ZM162.92,44.54h5.91v-11.98c0-.16-.07-.24-.24-.24h-5.42c-.16,0-.25.09-.25.24v11.98ZM168.3,43.36c0,.16-.09.25-.24.25h-4.29c-.16,0-.22-.09-.22-.25v-7.16c0-.16.07-.22.22-.22h4.29c.15,0,.24.07.24.22v7.16ZM163.59,33.38h4.54v1.56h-4.54v-1.56ZM166.68,37.54h-1.53l-.07.07v4.38l.07.09h1.53c.07,0,.09-.02.09-.09v-4.38l-.09-.07ZM175.55,50.67c-2.47-.91-4.49-1.49-6.07-1.73l.42-1.78c1.76.27,3.82.85,6.2,1.73l-.55,1.78Z"/>
    <path class="cls-3" d="M185.93,32.45c.65.84,1.31,1.93,1.96,3.29,1.02-.6,2.87-1.69,3.73-3.51h-3.16v-1.71h8.49c.87,0,1.05.38,1.05,1.09v.15c-.27,4.31-.95,5.45-2.76,5.45-.69,0-1.51-.18-2.51-.51l.15-1.87,1.49.36c.18.02.36.04.49.04.38,0,.67-.11.85-.47.29-1.02.42-1.73.42-2.16,0-.13,0-.24-.04-.31l-.22-.07h-2.31l-.87,1.69c-.78,1.22-2.18,2.38-4.13,3.4l-1.02-1.29-1.13.64-.4-.8-7.49,1.96-.6-1.71,1.27-.31v-4.27c-.02-.24.11-.35.42-.38,2.22-.13,4.36-.51,6.36-1.07l.78,1.53c-1.73.51-3.65.85-5.74,1.02-.09,0-.13.07-.11.18v2.51l4.18-1.09-.6-.87,1.47-.93ZM191.39,47.52h-6.67l.49,1.49c-1.76.73-3.93,1.31-6.56,1.76l-.46-1.85c2.22-.42,4.09-.91,5.58-1.4h-2.93c-.13,0-.22-.09-.22-.27v-9.47c0-.13.09-.22.22-.22h14.85c.18,0,.27.09.27.22v9.47c0,.18-.09.27-.27.27h-3.27l5.73,1.38-.47,1.84-6.56-1.58.27-1.65ZM182.41,40.34h11.74v-1.18l-.09-.07h-11.58c-.07,0-.09.02-.07.07v1.18ZM182.41,43.12h11.74v-1.25h-11.74v1.25ZM194.15,44.65h-11.74v1.24l.07.09h11.58l.09-.09v-1.24Z"/>
    <path class="cls-3" d="M207.29,48.23c3.16-1.38,5.44-3.34,6.8-5.8h-3.31l-.53.87c-1.69,2.31-4.76,4.09-9.16,5.27l-.87-1.8.62-.13c3.62-.84,6.22-2.27,7.74-4.2h-3.45c-1.2.82-2.58,1.53-4.11,2.13l-1.04-1.67.89-.33c2.15-.82,3.87-2,4.98-3.51h-3.31c-.18,0-.27-.09-.27-.29v-7.76c0-.18.09-.27.27-.27h15.67c.2,0,.29.09.29.27v7.76c0,.2-.09.29-.29.29h-10.18l-.93,1.56h12.4c.51.11.71.18.71,1.04l-.11,4.58c-.09,2.02-.53,4.35-3.89,4.35-.8,0-1.71-.13-2.76-.4l-.09-2.2c.47.18,1.65.56,2.56.56.76,0,1.4-.24,1.89-.76.35-.55.53-1.6.53-4.11,0-1.05-.09-1.24-.36-1.24h-1.91l-.4.91c-1.51,3-4.74,5.51-9.69,7.47l-1.09-1.65,2.4-.93ZM204.15,34.12h12.45v-1.49c0-.07-.02-.09-.09-.09h-12.29c-.07,0-.09.02-.07.09v1.49ZM216.6,35.92h-12.45v1.22c-.02.07,0,.09.07.11h12.29l.09-.11v-1.22Z"/>
  </g>
  <g>
    <g>
      <polygon class="cls-22" points="16.08 30.09 6.89 38.95 10.45 38.95 19.63 30.09 16.08 30.09"/>
      <polygon class="cls-5" points="12.15 30.09 2.97 38.95 5.1 38.95 14.28 30.09 12.15 30.09"/>
      <polygon class="cls-9" points="8.98 30.09 -.2 38.95 .98 38.95 10.17 30.09 8.98 30.09"/>
      <path class="cls-8" d="M112.97,15.19h-52.6v.02c-9.03.38-16.57,6.54-19,14.88h-20.5l-9.19,8.86h13.87v24.86h8.86v-24.86h6.35c1.47,9.99,10.08,17.66,20.48,17.66,11.44,0,20.71-9.27,20.71-20.71,0-2.02-.29-3.97-.83-5.81h-30.2c2.04-3.6,5.9-6.04,10.33-6.04h26.84v39.76h8.86V24.05s6.85,0,6.85,0l9.19-8.86ZM72.7,38.95c-1.35,5.06-5.97,8.81-11.45,8.81s-10.11-3.74-11.46-8.81h22.91Z"/>
      <polygon class="cls-10" points="114.2 15.19 105.02 24.05 108.58 24.05 117.76 15.19 114.2 15.19"/>
      <polygon class="cls-19" points="119.55 15.19 110.37 24.05 112.5 24.05 121.69 15.19 119.55 15.19"/>
      <polygon class="cls-15" points="123.67 15.19 114.48 24.05 115.67 24.05 124.85 15.19 123.67 15.19"/>
    </g>
    <g>
      <polygon class="cls-11" points="16.08 30.09 6.89 38.95 10.45 38.95 19.63 30.09 16.08 30.09"/>
      <polygon class="cls-16" points="12.15 30.09 2.97 38.95 5.1 38.95 14.28 30.09 12.15 30.09"/>
      <polygon class="cls-6" points="8.98 30.09 -.2 38.95 .98 38.95 10.17 30.09 8.98 30.09"/>
      <path class="cls-17" d="M112.97,15.19h-52.6v.02c-9.03.38-16.57,6.54-19,14.88h-20.5l-9.19,8.86h13.87v24.86h8.86v-24.86h6.35c1.47,9.99,10.08,17.66,20.48,17.66,11.44,0,20.71-9.27,20.71-20.71,0-2.02-.29-3.97-.83-5.81h-30.2c2.04-3.6,5.9-6.04,10.33-6.04h26.84v39.76h8.86V24.05s6.85,0,6.85,0l9.19-8.86ZM72.7,38.95c-1.35,5.06-5.97,8.81-11.45,8.81s-10.11-3.74-11.46-8.81h22.91Z"/>
      <polygon class="cls-7" points="114.2 15.19 105.02 24.05 108.58 24.05 117.76 15.19 114.2 15.19"/>
      <polygon class="cls-2" points="119.55 15.19 110.37 24.05 112.5 24.05 121.69 15.19 119.55 15.19"/>
      <polygon class="cls-12" points="123.67 15.19 114.48 24.05 115.67 24.05 124.85 15.19 123.67 15.19"/>
    </g>
    <g>
      <polygon class="cls-1" points="16.08 30.09 6.89 38.95 10.45 38.95 19.63 30.09 16.08 30.09"/>
      <polygon class="cls-21" points="12.15 30.09 2.97 38.95 5.1 38.95 14.28 30.09 12.15 30.09"/>
      <polygon class="cls-14" points="8.98 30.09 -.2 38.95 .98 38.95 10.17 30.09 8.98 30.09"/>
      <path class="cls-23" d="M112.97,15.19h-52.6v.02c-9.03.38-16.57,6.54-19,14.88h-20.5l-9.19,8.86h13.87v24.86h8.86v-24.86h6.35c1.47,9.99,10.08,17.66,20.48,17.66,11.44,0,20.71-9.27,20.71-20.71,0-2.02-.29-3.97-.83-5.81h-30.2c2.04-3.6,5.9-6.04,10.33-6.04h26.84v39.76h8.86V24.05h6.85l9.19-8.86ZM72.7,38.95c-1.35,5.06-5.97,8.81-11.45,8.81s-10.11-3.74-11.46-8.81h22.91Z"/>
      <polygon class="cls-18" points="114.2 15.19 105.02 24.05 108.58 24.05 117.76 15.19 114.2 15.19"/>
      <polygon class="cls-13" points="119.55 15.19 110.37 24.05 112.5 24.05 121.69 15.19 119.55 15.19"/>
      <polygon class="cls-20" points="123.67 15.19 114.48 24.05 115.67 24.05 124.85 15.19 123.67 15.19"/>
    </g>
  </g>
</svg>